Coordinates
version=1
nRows=5
nColumns=63
inDegrees=yes

Units are S.I. units (second, meters, Newtons, ...)
If the header above contains a line with 'inDegrees', this indicates whether rotational values are in degrees (yes) or radians (no).

endheader
time	pelvis_tilt	pelvis_list	pelvis_rotation	pelvis_tx	pelvis_ty	pelvis_tz	hip_flexion_r	hip_adduction_r	hip_rotation_r	knee_angle_r	knee_angle_r_beta	ankle_angle_r	subtalar_angle_r	mtp_angle_r	hip_flexion_l	hip_adduction_l	hip_rotation_l	knee_angle_l	knee_angle_l_beta	ankle_angle_l	subtalar_angle_l	mtp_angle_l	L5_S1_Flex_Ext	L5_S1_Lat_Bending	L5_S1_axial_rotation	L4_L5_Flex_Ext	L4_L5_Lat_Bending	L4_L5_axial_rotation	L3_L4_Flex_Ext	L3_L4_Lat_Bending	L3_L4_axial_rotation	L2_L3_Flex_Ext	L2_L3_Lat_Bending	L2_L3_axial_rotation	L1_L2_Flex_Ext	L1_L2_Lat_Bending	L1_L2_axial_rotation	L1_T12_Flex_Ext	L1_T12_Lat_Bending	L1_T12_axial_rotation	Abs_r3	Abs_r2	Abs_r1	Abs_t1	Abs_t2	neck_flexion	neck_bending	neck_rotation	arm_flex_r	arm_add_r	arm_rot_r	elbow_flex_r	pro_sup_r	wrist_flex_r	wrist_dev_r	arm_flex_l	arm_add_l	arm_rot_l	elbow_flex_l	pro_sup_l	wrist_flex_l	wrist_dev_l
      4.01960784	      7.77250016	     -0.08995602	     85.71927640	      0.46436194	      0.62428042	      0.67844583	     -2.17605074	      4.68739272	     -4.24413923	      6.98319317	      0.12187971	     18.73537165	      3.95513579	      0.00000000	      2.58066824	     -4.20571245	     -5.21304994	     17.59137786	      0.30702746	     28.12853330	     -6.18009175	      0.00000000	     -0.16794004	      0.66382259	     -0.45465237	     -0.31188145	      0.88288405	     -0.48306814	     -0.27590869	      1.61401826	     -0.48306814	     -0.19193867	      1.61401826	     -0.39782082	     -0.15594912	      1.35366704	     -0.36940505	     -0.09596094	      1.02826120	     -0.34098928	     -1.19957891	      7.50929396	     -2.52864009	      0.00000000	      0.00000000	      6.46043411	     -4.04816206	     13.30098904	     25.01496045	    -14.99196080	     83.90809327	     58.11630488	     87.30149124	     17.64075847	      3.90384908	     16.10201548	    -10.87601067	     69.36739510	     57.74379729	     83.21422898	     20.67493350	     22.72190312
      4.03921569	      7.71242168	      0.00650819	     85.22043268	      0.46466466	      0.62452201	      0.67947674	     -2.03080661	      4.54503114	     -4.47002804	      7.24948546	      0.12652739	     19.17826814	      4.88508400	      0.00000000	      2.36161883	     -4.22874719	     -6.38588914	     17.38976280	      0.30350862	     28.31776755	     -5.13022449	      0.00000000	     -0.18167083	      0.65087967	     -0.39658997	     -0.33738089	      0.86566996	     -0.42137684	     -0.29846700	      1.58254883	     -0.42137684	     -0.20763159	      1.58254883	     -0.34701622	     -0.16869953	      1.32727382	     -0.32222935	     -0.10380671	      1.00821261	     -0.29744248	     -1.29765654	      7.36288101	     -2.20571443	      0.00000000	      0.00000000	      6.09954707	     -3.82122639	     13.30277042	     25.76150626	    -14.75967129	     85.39507081	     58.03612712	     87.53848875	     16.38618249	      4.12072754	     16.02215896	    -10.79170033	     68.55379375	     57.50633707	     83.84179456	     21.76967204	     22.74549604
      4.05882353	      7.65550236	      0.10620086	     84.65009602	      0.46525883	      0.62472210	      0.68057055	     -1.97489247	      4.51691788	     -3.20265930	      7.29164154	      0.12726315	     19.28285956	      3.94686722	      0.00000000	      2.15278382	     -4.24916274	     -7.47458801	     17.26596976	      0.30134802	     28.40868972	     -4.32171517	      0.00000000	     -0.20145982	      0.63814427	     -0.33398068	     -0.37413103	      0.84873187	     -0.35485447	     -0.33097834	      1.55158397	     -0.35485447	     -0.23024843	      1.55158397	     -0.29223310	     -0.18707559	      1.30130379	     -0.27135930	     -0.11511414	      0.98848547	     -0.25048551	     -1.43900735	      7.21881557	     -1.85750035	      0.00000000	      0.00000000	      5.86517037	     -3.59498302	     13.36235476	     26.29862020	    -14.45242197	     86.38387348	     57.77520290	     88.07333684	     15.96039571	      4.10288582	     16.15880306	    -10.83636291	     68.36191586	     57.32174071	     83.73715475	     22.11872281	     22.44822355
      4.07843137	      7.63089076	      0.24198637	     84.50590094	      0.46520459	      0.62479614	      0.68168642	     -1.93127560	      4.44850001	     -3.54224262	      7.43342724	      0.12973778	     19.82763274	      4.71451632	      0.00000000	      1.99262206	     -4.25530641	     -7.96627290	     17.17551306	      0.29976925	     28.43448855	     -3.75693145	      0.00000000	     -0.22798652	      0.63129988	     -0.33605328	     -0.42339377	      0.83962884	     -0.35705661	     -0.37455905	      1.53494252	     -0.35705661	     -0.26056579	      1.53494252	     -0.29404662	     -0.21170828	      1.28734671	     -0.27304329	     -0.13027150	      0.97788351	     -0.25203996	     -1.62848491	      7.14139046	     -1.86902754	      0.00000000	      0.00000000	      5.67858678	     -3.52122237	     13.25173053	     26.54674837	    -14.36939714	     86.87837838	     57.87253059	     88.49773931	     14.85528719	      4.62303283	     16.90949896	    -11.02004242	     69.76868051	     57.22975841	     81.80309095	     20.90341906	     21.94885323
      4.09803922	      7.63478607	      0.18521554	     83.98317191	      0.46574549	      0.62470908	      0.68239748	     -1.75381676	      4.43579713	     -3.10653937	      7.44760402	      0.12998521	     20.21380966	      5.18311169	      0.00000000	      1.95464672	     -4.29256987	     -8.64836037	     17.13130737	      0.29899772	     28.30664198	     -3.73744937	      0.00000000	     -0.22936441	      0.62873544	     -0.29317800	     -0.42595264	      0.83621814	     -0.31150162	     -0.37682278	      1.52870736	     -0.31150162	     -0.26214058	      1.52870736	     -0.25653075	     -0.21298779	      1.28211732	     -0.23820712	     -0.13105882	      0.97391120	     -0.21988350	     -1.63832701	      7.11238109	     -1.63056806	      0.00000000	      0.00000000	      5.70131200	     -3.42812532	     13.12394837	     25.82396443	    -14.25417594	     85.35658499	     57.49540918	     88.65248904	     16.15568613	      4.98029469	     16.42963822	    -11.01420290	     68.69867824	     57.40931923	     82.91139489	     20.87259271	     22.57343681
